<svg width="24" height="30" viewBox="0 0 24 30" fill="none" xmlns="http://www.w3.org/2000/svg">
<path d="M2.66667 5.13859V17.3853C2.66668 18.2632 2.88343 19.1276 3.29768 19.9016C3.71193 20.6757 4.31087 21.3355 5.04133 21.8226L12 26.4626L18.9587 21.8226C19.6889 21.3357 20.2878 20.676 20.702 19.9022C21.1162 19.1284 21.3331 18.2643 21.3333 17.3866V5.13859L12 3.06659L2.66667 5.13859ZM1.044 2.76792L12 0.333252L22.956 2.76792C23.2521 2.83374 23.5169 2.99854 23.7067 3.23513C23.8965 3.47171 23.9999 3.76594 24 4.06925V17.3853C23.9999 18.7022 23.6747 19.9988 23.0532 21.1599C22.4317 22.321 21.5332 23.3108 20.4373 24.0413L12 29.6666L3.56267 24.0413C2.46703 23.3109 1.56861 22.3214 0.947131 21.1605C0.325648 19.9997 0.000315142 18.7033 0 17.3866V4.06925C5.20504e-05 3.76594 0.103517 3.47171 0.293319 3.23513C0.483122 2.99854 0.747916 2.83374 1.044 2.76792ZM12 16.9999L8.08133 19.0599L8.82933 14.6973L5.66 11.6066L10.0413 10.9693L12 6.99992L13.96 10.9693L18.34 11.6066L15.1707 14.6973L15.9173 19.0599L12 16.9999Z" fill="#FF9900"/>
</svg>
