<svg width="22" height="29" viewBox="0 0 22 29" fill="none" xmlns="http://www.w3.org/2000/svg">
<path d="M0.333252 28.3333C0.333252 25.5043 1.45706 22.7912 3.45745 20.7908C5.45783 18.7904 8.17094 17.6666 10.9999 17.6666C13.8289 17.6666 16.542 18.7904 18.5424 20.7908C20.5428 22.7912 21.6666 25.5043 21.6666 28.3333H0.333252ZM12.3333 20.4439V25.6666H18.5453C18.0686 24.3218 17.2415 23.1287 16.1495 22.2105C15.0574 21.2924 13.7399 20.6825 12.3333 20.4439ZM9.66658 25.6666V20.4439C8.25991 20.6825 6.94247 21.2924 5.85039 22.2105C4.75831 23.1287 3.93122 24.3218 3.45459 25.6666H9.66658ZM10.9999 16.3333C6.57992 16.3333 2.99992 12.7533 2.99992 8.33325C2.99992 3.91325 6.57992 0.333252 10.9999 0.333252C15.4199 0.333252 18.9999 3.91325 18.9999 8.33325C18.9999 12.7533 15.4199 16.3333 10.9999 16.3333ZM10.9999 13.6666C13.9466 13.6666 16.3333 11.2799 16.3333 8.33325C16.3333 5.38659 13.9466 2.99992 10.9999 2.99992C8.05325 2.99992 5.66658 5.38659 5.66658 8.33325C5.66658 11.2799 8.05325 13.6666 10.9999 13.6666Z" fill="#FF9900"/>
</svg>
