<svg width="21" height="20" viewBox="0 0 21 20" fill="none" xmlns="http://www.w3.org/2000/svg">
<path d="M10.5012 1.71771C12.9481 -0.479165 16.7293 -0.406248 19.0866 1.95521C21.4429 4.31771 21.5241 8.08021 19.3325 10.5344L10.4991 19.3802L1.66788 10.5344C-0.523789 8.08021 -0.441497 4.31146 1.91371 1.95521C4.27309 -0.403123 8.04704 -0.48229 10.5012 1.71771ZM17.6116 3.42709C16.0491 1.8625 13.5283 1.79896 11.8929 3.26771L10.5023 4.51563L9.11059 3.26875C7.46996 1.79792 4.95434 1.8625 3.38767 3.42917C1.83559 4.98125 1.75746 7.46563 3.18767 9.10729L10.5002 16.4313L17.8127 9.10834C19.2439 7.46563 19.1658 4.98438 17.6116 3.42709Z" fill="#1074EB"/>
</svg>
