<svg width="20" height="21" viewBox="0 0 20 21" fill="none" xmlns="http://www.w3.org/2000/svg">
<path d="M12.1417 15.9906L6.81878 13.0875C6.30783 13.5947 5.65817 13.9392 4.95168 14.0777C4.2452 14.2162 3.51353 14.1425 2.84891 13.8657C2.18429 13.589 1.61648 13.1217 1.21706 12.5227C0.817637 11.9237 0.604492 11.2199 0.604492 10.5C0.604492 9.78007 0.817637 9.07626 1.21706 8.47729C1.61648 7.87832 2.18429 7.41101 2.84891 7.13427C3.51353 6.85754 4.2452 6.78377 4.95168 6.92227C5.65817 7.06076 6.30783 7.40532 6.81878 7.9125L12.1417 5.00938C11.9591 4.15285 12.091 3.25923 12.5131 2.49193C12.9353 1.72464 13.6195 1.13493 14.4408 0.830663C15.262 0.526394 16.1653 0.527893 16.9855 0.834885C17.8056 1.14188 18.4879 1.73385 18.9075 2.50254C19.3271 3.27124 19.456 4.16529 19.2706 5.0212C19.0852 5.87712 18.5979 6.6377 17.8979 7.16386C17.1978 7.69002 16.3317 7.94659 15.458 7.88667C14.5843 7.82674 13.7613 7.45432 13.1396 6.8375L7.81669 9.74063C7.92287 10.2413 7.92287 10.7587 7.81669 11.2594L13.1396 14.1625C13.7613 13.5457 14.5843 13.1733 15.458 13.1133C16.3317 13.0534 17.1978 13.31 17.8979 13.8361C18.5979 14.3623 19.0852 15.1229 19.2706 15.9788C19.456 16.8347 19.3271 17.7288 18.9075 18.4975C18.4879 19.2662 17.8056 19.8581 16.9855 20.1651C16.1653 20.4721 15.262 20.4736 14.4408 20.1693C13.6195 19.8651 12.9353 19.2754 12.5131 18.5081C12.091 17.7408 11.9591 16.8472 12.1417 15.9906Z" fill="#1074EB"/>
</svg>
