<svg width="14" height="12" viewBox="0 0 14 12" fill="none" xmlns="http://www.w3.org/2000/svg">
<path d="M11.6668 0.666664H2.3335C1.80306 0.666664 1.29436 0.877378 0.919283 1.25245C0.54421 1.62752 0.333496 2.13623 0.333496 2.66666V9.33333C0.333496 9.86376 0.54421 10.3725 0.919283 10.7475C1.29436 11.1226 1.80306 11.3333 2.3335 11.3333H11.6668C12.1973 11.3333 12.706 11.1226 13.081 10.7475C13.4561 10.3725 13.6668 9.86376 13.6668 9.33333V2.66666C13.6668 2.13623 13.4561 1.62752 13.081 1.25245C12.706 0.877378 12.1973 0.666664 11.6668 0.666664ZM11.2202 2L7.00016 5.16666L2.78016 2H11.2202ZM11.6668 10H2.3335C2.15669 10 1.98712 9.92976 1.86209 9.80474C1.73707 9.67971 1.66683 9.51014 1.66683 9.33333V2.83333L6.60016 6.53333C6.71556 6.61988 6.85592 6.66666 7.00016 6.66666C7.14441 6.66666 7.28477 6.61988 7.40016 6.53333L12.3335 2.83333V9.33333C12.3335 9.51014 12.2633 9.67971 12.1382 9.80474C12.0132 9.92976 11.8436 10 11.6668 10Z" fill="#FF9900"/>
</svg>
