<svg width="22" height="22" viewBox="0 0 22 22" fill="none" xmlns="http://www.w3.org/2000/svg">
<path d="M18.2664 21.8031H3.85808C1.95563 21.8031 0.407959 20.2191 0.407959 18.2719V3.53128C0.407959 1.584 1.95563 0 3.85808 0H18.2664C20.1683 0 21.716 1.584 21.716 3.53128V18.2724C21.716 20.2197 20.1683 21.8031 18.2664 21.8031ZM7.55796 4.51282H14.708C16.2267 4.51282 17.458 5.77561 17.458 7.33333V14.6667C17.458 16.2244 16.2267 17.4872 14.708 17.4872H7.55796C6.03918 17.4872 4.80796 16.2244 4.80796 14.6667V7.33333C4.80796 5.77561 6.03918 4.51282 7.55796 4.51282ZM7.55796 2.82051C5.1279 2.82051 3.15796 4.84097 3.15796 7.33333V14.6667C3.15796 17.159 5.1279 19.1795 7.55796 19.1795H14.708C17.138 19.1795 19.108 17.159 19.108 14.6667V7.33333C19.108 4.84097 17.138 2.82051 14.708 2.82051H7.55796ZM11.133 14.9487C13.2593 14.9487 14.983 13.1808 14.983 11C14.983 8.81918 13.2593 7.05128 11.133 7.05128C9.00666 7.05128 7.28296 8.81918 7.28296 11C7.28296 13.1808 9.00666 14.9487 11.133 14.9487ZM11.133 13.2564C9.91793 13.2564 8.93296 12.2462 8.93296 11C8.93296 9.75382 9.91793 8.74359 11.133 8.74359C12.348 8.74359 13.333 9.75382 13.333 11C13.333 12.2462 12.348 13.2564 11.133 13.2564ZM15.258 7.89744C15.8655 7.89744 16.358 7.39232 16.358 6.76923C16.358 6.14614 15.8655 5.64103 15.258 5.64103C14.6504 5.64103 14.158 6.14614 14.158 6.76923C14.158 7.39232 14.6504 7.89744 15.258 7.89744Z" fill="#1074EB"/>
</svg>
