<svg width="17" height="22" viewBox="0 0 17 22" fill="none" xmlns="http://www.w3.org/2000/svg">
<path d="M0.833252 21.0833C0.833252 19.05 1.64099 17.1 3.07877 15.6622C4.51655 14.2244 6.46659 13.4167 8.49992 13.4167C10.5332 13.4167 12.4833 14.2244 13.9211 15.6622C15.3589 17.1 16.1666 19.05 16.1666 21.0833H14.2499C14.2499 19.5583 13.6441 18.0958 12.5658 17.0175C11.4874 15.9391 10.0249 15.3333 8.49992 15.3333C6.97492 15.3333 5.51239 15.9391 4.43405 17.0175C3.35572 18.0958 2.74992 19.5583 2.74992 21.0833H0.833252ZM8.49992 12.4583C5.32304 12.4583 2.74992 9.8852 2.74992 6.70833C2.74992 3.53145 5.32304 0.958328 8.49992 0.958328C11.6768 0.958328 14.2499 3.53145 14.2499 6.70833C14.2499 9.8852 11.6768 12.4583 8.49992 12.4583ZM8.49992 10.5417C10.6178 10.5417 12.3333 8.82624 12.3333 6.70833C12.3333 4.59041 10.6178 2.87499 8.49992 2.87499C6.382 2.87499 4.66659 4.59041 4.66659 6.70833C4.66659 8.82624 6.382 10.5417 8.49992 10.5417Z" fill="white"/>
</svg>
