<svg width="25" height="25" viewBox="0 0 25 25" fill="none" xmlns="http://www.w3.org/2000/svg">
<path d="M21 0H4C1.79086 0 0 1.79086 0 4V21C0 23.2091 1.79086 25 4 25H21C23.2091 25 25 23.2091 25 21V4C25 1.79086 23.2091 0 21 0Z" fill="#7D3DAF"/>
<path d="M20.4065 8.05852L20.4015 8.03877C20.0022 6.42433 18.2018 4.69195 16.5484 4.33154L16.5297 4.3277C13.8555 3.81753 11.1439 3.81753 8.47017 4.3277L8.45097 4.33154C6.79813 4.69195 4.99772 6.42433 4.59782 8.03877L4.59343 8.05852C4.09972 10.3131 4.09972 12.5996 4.59343 14.8542L4.59782 14.8739C4.98066 16.4195 6.647 18.0723 8.23867 18.5268V20.329C8.23867 20.9812 9.03355 21.3016 9.48557 20.8309L11.3115 18.9329C11.7075 18.9551 12.1037 18.9674 12.5 18.9674C13.8461 18.9674 15.1929 18.8402 16.5297 18.5851L16.5484 18.5812C18.2018 18.2208 20.0022 16.4884 20.4015 14.874L20.4065 14.8542C20.9002 12.5996 20.9002 10.3131 20.4065 8.05852ZM18.9616 14.5272C18.695 15.5805 17.3279 16.8899 16.2417 17.1319C14.8198 17.4022 13.3866 17.5178 11.9548 17.4782C11.9264 17.4774 11.899 17.4884 11.8791 17.5088C11.676 17.7174 10.546 18.8774 10.546 18.8774L9.1279 20.3328C9.02422 20.4408 8.8421 20.3673 8.8421 20.2181V17.2327C8.8421 17.1834 8.80688 17.1415 8.75844 17.132C8.75817 17.1319 8.75789 17.1319 8.75762 17.1318C7.67145 16.8899 6.30496 15.5804 6.03781 14.5272C5.59347 12.4893 5.59347 10.4233 6.03781 8.38541C6.30496 7.33215 7.67145 6.02272 8.75762 5.7808C11.241 5.30848 13.7589 5.30848 16.2417 5.7808C17.3285 6.02272 18.695 7.33215 18.9616 8.38541C19.4064 10.4234 19.4064 12.4893 18.9616 14.5272Z" fill="white"/>
<path d="M14.8627 15.9053C14.6957 15.8546 14.5365 15.8205 14.3888 15.7592C12.8574 15.1238 11.448 14.3041 10.3316 13.0476C9.69673 12.3331 9.19983 11.5265 8.77979 10.6728C8.58061 10.2679 8.41275 9.84723 8.24165 9.42928C8.08564 9.04813 8.31543 8.65437 8.5574 8.36719C8.78446 8.09768 9.07663 7.89142 9.39304 7.73941C9.64001 7.62075 9.88363 7.68916 10.064 7.8985C10.4539 8.35107 10.8121 8.82679 11.1021 9.35138C11.2804 9.67405 11.2315 10.0685 10.9083 10.2881C10.8297 10.3414 10.7582 10.4041 10.685 10.4644C10.6208 10.5172 10.5604 10.5706 10.5164 10.6421C10.436 10.773 10.4321 10.9274 10.4839 11.0697C10.8825 12.1651 11.5543 13.0168 12.6569 13.4756C12.8333 13.549 13.0105 13.6344 13.2137 13.6108C13.5541 13.571 13.6643 13.1976 13.9028 13.0026C14.136 12.8119 14.4339 12.8094 14.685 12.9683C14.9362 13.1273 15.1797 13.298 15.4218 13.4704C15.6593 13.6397 15.8959 13.8053 16.115 13.9983C16.3258 14.1839 16.3983 14.4274 16.2797 14.6792C16.0624 15.1404 15.7464 15.5242 15.2904 15.7691C15.1616 15.8382 15.0079 15.8605 14.8627 15.9053C14.6957 15.8545 15.0079 15.8605 14.8627 15.9053Z" fill="white"/>
<path d="M12.5042 7.21201C14.5073 7.26813 16.1525 8.59748 16.5051 10.5778C16.5651 10.9152 16.5865 11.2602 16.6133 11.6027C16.6245 11.7468 16.5429 11.8836 16.3875 11.8855C16.2269 11.8874 16.1547 11.7531 16.1442 11.6091C16.1236 11.324 16.1093 11.0377 16.07 10.7551C15.8626 9.2629 14.6728 8.0284 13.1876 7.76349C12.9641 7.72361 12.7353 7.71313 12.5089 7.68938C12.3658 7.67435 12.1784 7.66568 12.1466 7.48778C12.12 7.33863 12.2459 7.21986 12.388 7.21223C12.4266 7.2101 12.4654 7.21185 12.5042 7.21201C14.5073 7.26813 12.4654 7.21185 12.5042 7.21201Z" fill="white"/>
<path d="M15.5483 11.1582C15.545 11.1832 15.5433 11.242 15.5286 11.2974C15.4755 11.4985 15.1706 11.5237 15.1004 11.3207C15.0796 11.2605 15.0764 11.192 15.0763 11.1271C15.0756 10.7029 14.9834 10.2791 14.7695 9.90992C14.5495 9.53053 14.2135 9.2116 13.8195 9.01861C13.5812 8.90193 13.3234 8.82941 13.0623 8.78618C12.9481 8.76731 12.8327 8.75584 12.718 8.73988C12.579 8.72057 12.5048 8.63198 12.5114 8.495C12.5175 8.36663 12.6113 8.27431 12.7512 8.28221C13.2109 8.30832 13.6549 8.40767 14.0636 8.62408C14.8947 9.0642 15.3694 9.7589 15.508 10.6865C15.5143 10.7286 15.5243 10.7702 15.5275 10.8124C15.5354 10.9166 15.5403 11.0208 15.5483 11.1582C15.545 11.1832 15.5403 11.0208 15.5483 11.1582Z" fill="white"/>
<path d="M14.3023 11.1097C14.1347 11.1128 14.045 11.02 14.0278 10.8663C14.0158 10.7592 14.0063 10.6506 13.9807 10.5464C13.9303 10.3411 13.8212 10.1509 13.6485 10.0251C13.567 9.96571 13.4746 9.92242 13.3779 9.8945C13.2549 9.85901 13.1273 9.86877 13.0046 9.83871C12.8714 9.80607 12.7978 9.69822 12.8187 9.57326C12.8378 9.45954 12.9484 9.37078 13.0726 9.37978C13.8493 9.43584 14.4043 9.83734 14.4835 10.7516C14.4891 10.8161 14.4957 10.8843 14.4814 10.946C14.4569 11.0517 14.3786 11.1046 14.3023 11.1097C14.1347 11.1128 14.3786 11.1046 14.3023 11.1097Z" fill="white"/>
</svg>
