<svg width="25" height="25" viewBox="0 0 25 25" fill="none" xmlns="http://www.w3.org/2000/svg">
<path d="M20.625 0H4.375C1.95875 0 0 1.95875 0 4.375V20.625C0 23.0412 1.95875 25 4.375 25H20.625C23.0412 25 25 23.0412 25 20.625V4.375C25 1.95875 23.0412 0 20.625 0Z" fill="#05C443"/>
<path d="M10.711 8.35163L11.4923 10.4727C11.5112 10.5202 11.5175 10.5717 11.5107 10.6224C11.5039 10.673 11.4841 10.721 11.4532 10.7618C11.2856 11.0049 11.0917 11.229 10.8751 11.4298C10.8121 11.4792 10.7705 11.5509 10.7589 11.6302C10.7472 11.7094 10.7665 11.7901 10.8126 11.8555C11.2931 12.5001 12.5392 14.0626 14.1603 14.6212C14.2227 14.6418 14.2901 14.6419 14.3527 14.6216C14.4152 14.6012 14.4696 14.5613 14.5079 14.5079L15.1563 13.6446C15.2006 13.5862 15.264 13.5452 15.3354 13.5288C15.4068 13.5124 15.4817 13.5216 15.547 13.5548L17.5782 14.5704C17.6488 14.6037 17.7042 14.6625 17.7332 14.7349C17.7622 14.8074 17.7627 14.8882 17.7345 14.961C17.5118 15.5938 16.8126 17.1368 15.3165 16.8868C13.3601 16.5866 11.5807 15.5823 10.3126 14.0626C9.08603 12.5313 6.66416 8.59382 10.3868 8.14851C10.4557 8.14166 10.525 8.15789 10.5836 8.19465C10.6423 8.23142 10.6871 8.28663 10.711 8.35163Z" fill="white"/>
<path d="M13.125 21.4062C11.4908 21.4085 9.88387 20.9873 8.46094 20.1836L3.77344 21.3867L5.49609 17.5156C4.45478 16.0511 3.89877 14.297 3.90625 12.5C3.90625 7.58984 8.04297 3.59375 13.125 3.59375C18.207 3.59375 22.3438 7.58984 22.3438 12.5C22.3438 17.4102 18.207 21.4062 13.125 21.4062ZM8.70703 18.5039L8.99219 18.6797C10.2343 19.4463 11.6653 19.8521 13.125 19.8516C17.3477 19.8516 20.7812 16.5586 20.7812 12.5078C20.7812 8.45703 17.3477 5.15625 13.125 5.15625C8.90234 5.15625 5.46875 8.44922 5.46875 12.5C5.47049 14.1113 6.02166 15.6739 7.03125 16.9297L7.32422 17.3008L5.91406 19.6914L8.70703 18.5039Z" fill="white"/>
</svg>
