<svg width="14" height="14" viewBox="0 0 14 14" fill="none" xmlns="http://www.w3.org/2000/svg">
<path d="M10.6002 13.6667C7.87836 13.6631 5.26904 12.5803 3.34443 10.6557C1.41982 8.73112 0.337024 6.12181 0.333496 3.4C0.333496 2.58667 0.65659 1.80665 1.2317 1.23154C1.80681 0.65643 2.58683 0.333336 3.40016 0.333336C3.57239 0.332024 3.74433 0.347655 3.9135 0.380002C4.07704 0.404203 4.23781 0.444395 4.3935 0.500002C4.503 0.538422 4.60057 0.604758 4.67657 0.692451C4.75257 0.780143 4.80436 0.886155 4.82683 1L5.74016 5C5.76478 5.10858 5.76182 5.22159 5.73154 5.32872C5.70126 5.43586 5.64464 5.53371 5.56683 5.61334C5.48016 5.70667 5.4735 5.71334 4.6535 6.14C5.31016 7.58057 6.4623 8.73744 7.90016 9.4C8.3335 8.57334 8.34016 8.56667 8.4335 8.48C8.51313 8.4022 8.61097 8.34557 8.71811 8.31529C8.82524 8.28502 8.93825 8.28205 9.04683 8.30667L13.0468 9.22C13.157 9.24557 13.2589 9.29876 13.3429 9.37457C13.4269 9.45038 13.4902 9.54631 13.5268 9.65333C13.5831 9.81157 13.6255 9.97441 13.6535 10.14C13.6803 10.3076 13.6937 10.477 13.6935 10.6467C13.6812 11.4565 13.349 12.2286 12.7695 12.7944C12.1899 13.3602 11.4101 13.6738 10.6002 13.6667ZM3.40016 1.66667C2.94099 1.66842 2.50113 1.85161 2.17645 2.17629C1.85177 2.50097 1.66859 2.94083 1.66683 3.4C1.6686 5.76873 2.61035 8.03993 4.28529 9.71487C5.96023 11.3898 8.23144 12.3316 10.6002 12.3333C11.0593 12.3316 11.4992 12.1484 11.8239 11.8237C12.1486 11.499 12.3317 11.0592 12.3335 10.6V10.38L9.24016 9.66667L9.04683 10.0333C8.74683 10.6133 8.52683 11.0333 7.96683 10.8067C6.86208 10.4112 5.85929 9.77469 5.03132 8.94326C4.20334 8.11182 3.57098 7.10639 3.18016 6C2.94016 5.48 3.3935 5.24 3.96683 4.94L4.3335 4.76L3.62016 1.66667H3.40016Z" fill="#FF9900"/>
</svg>
