<svg width="22" height="22" viewBox="0 0 22 22" fill="none" xmlns="http://www.w3.org/2000/svg">
<path d="M4.31278 0.00138855C1.94164 0.00138855 0.00146484 1.94156 0.00146484 4.3127V17.6928C0.00146484 20.0639 1.94164 22.0041 4.31278 22.0041H17.6929C20.064 22.0041 22.0042 20.0639 22.0042 17.6928V4.3127C22.0042 1.94156 20.064 0.00138855 17.6929 0.00138855H4.31278ZM6.78092 4.96581H11.1211C12.0225 4.96581 12.7072 4.99879 13.1719 5.06963C13.6367 5.13693 14.0732 5.28118 14.4788 5.5007C14.9178 5.73717 15.2475 6.05562 15.4647 6.45013C15.6819 6.84696 15.792 7.30309 15.792 7.82169C15.792 8.42106 15.6424 8.95383 15.341 9.42151C15.0424 9.88918 14.6282 10.2331 14.1014 10.4555V10.5194C14.8594 10.6804 15.4673 11.0042 15.9233 11.4971C16.38 11.9905 16.608 12.6547 16.608 13.4887C16.608 14.0992 16.4928 14.6377 16.2615 15.0996C16.0304 15.5614 15.7209 15.9419 15.3293 16.2463C14.8675 16.6092 14.3606 16.8653 13.8051 17.0204C13.2532 17.175 12.552 17.2521 11.6986 17.2521H6.78094V4.96583L6.78092 4.96581ZM9.8506 7.21806V9.81819H10.239C10.7658 9.81819 11.138 9.81277 11.3493 9.80169C11.5607 9.7906 11.7806 9.73399 12.0059 9.6298C12.2506 9.5145 12.4229 9.35441 12.5153 9.1513C12.6084 8.94584 12.6563 8.7086 12.6563 8.44112C12.6563 8.24154 12.6055 8.0383 12.5036 7.82994C12.4024 7.62156 12.2451 7.46925 12.0279 7.37619C11.8254 7.28606 11.5859 7.23854 11.3067 7.22976C11.0281 7.22096 10.6141 7.21808 10.0651 7.21808H9.85057L9.8506 7.21806ZM9.8506 11.9226V14.9985H10.017C10.82 14.9985 11.3747 14.9924 11.6814 14.9813C11.9881 14.9702 12.3041 14.8974 12.6219 14.7592C12.904 14.6381 13.1066 14.4606 13.2365 14.2264C13.3659 13.9929 13.4304 13.728 13.4304 13.4324C13.4304 13.0519 13.3552 12.7563 13.2001 12.542C13.0456 12.3255 12.8144 12.1647 12.5071 12.0546C12.321 11.9814 12.0617 11.9418 11.735 11.9336C11.4084 11.9254 10.9695 11.9226 10.4199 11.9226H9.85062H9.8506Z" fill="#1074EB"/>
</svg>
