<svg width="18" height="18" viewBox="0 0 18 18" fill="none" xmlns="http://www.w3.org/2000/svg">
<path d="M13.5003 17.3334C10.0981 17.329 6.83642 15.9755 4.43066 13.5697C2.0249 11.164 0.671402 7.90231 0.666992 4.50005C0.666992 3.48339 1.07086 2.50837 1.78975 1.78948C2.50864 1.07059 3.48366 0.666721 4.50033 0.666721C4.71561 0.665081 4.93053 0.68462 5.14199 0.725054C5.34642 0.755305 5.54738 0.805546 5.74199 0.875055C5.87887 0.923079 6.00083 1.006 6.09583 1.11561C6.19083 1.22523 6.25558 1.35775 6.28366 1.50005L7.42533 6.50005C7.4561 6.63577 7.45239 6.77704 7.41455 6.91096C7.3767 7.04488 7.30592 7.16719 7.20866 7.26672C7.10033 7.38339 7.09199 7.39172 6.06699 7.92506C6.88782 9.72577 8.32799 11.1719 10.1253 12.0001C10.667 10.9667 10.6753 10.9584 10.792 10.8501C10.8915 10.7528 11.0138 10.682 11.1478 10.6442C11.2817 10.6063 11.4229 10.6026 11.5587 10.6334L16.5587 11.7751C16.6964 11.807 16.8238 11.8735 16.9287 11.9683C17.0337 12.063 17.1128 12.1829 17.1587 12.3167C17.229 12.5145 17.282 12.7181 17.317 12.9251C17.3505 13.1345 17.3673 13.3463 17.367 13.5584C17.3516 14.5707 16.9364 15.5358 16.212 16.2431C15.4875 16.9504 14.5127 17.3423 13.5003 17.3334ZM4.50033 2.33339C3.92637 2.33558 3.37654 2.56456 2.97069 2.97041C2.56483 3.37627 2.33585 3.92609 2.33366 4.50005C2.33587 7.46096 3.51306 10.3 5.60674 12.3936C7.70042 14.4873 10.5394 15.6645 13.5003 15.6667C14.0743 15.6645 14.6241 15.4355 15.03 15.0297C15.4358 14.6238 15.6648 14.074 15.667 13.5001V13.2251L11.8003 12.3334L11.5587 12.7917C11.1837 13.5167 10.9087 14.0417 10.2087 13.7584C8.82773 13.2641 7.57424 12.4684 6.53927 11.4291C5.5043 10.3898 4.71384 9.13304 4.22533 7.75005C3.92533 7.10006 4.49199 6.80006 5.20866 6.42506L5.66699 6.20006L4.77533 2.33339H4.50033Z" fill="#FF9900"/>
</svg>
