<svg width="22" height="22" viewBox="0 0 22 22" fill="none" xmlns="http://www.w3.org/2000/svg">
<path d="M4.31229 0.00134277C1.94116 0.00134277 0.000976562 1.94152 0.000976562 4.31265V17.6928C0.000976562 20.0639 1.94116 22.0041 4.31229 22.0041H17.6924C20.0636 22.0041 22.0037 20.0639 22.0037 17.6928V4.31265C22.0037 1.94152 20.0636 0.00134277 17.6924 0.00134277H4.31229ZM6.78043 4.96576H11.1206C12.022 4.96576 12.7067 4.99874 13.1714 5.06958C13.6362 5.13688 14.0727 5.28113 14.4784 5.50065C14.9173 5.73713 15.2471 6.05558 15.4642 6.45008C15.6814 6.84691 15.7915 7.30304 15.7915 7.82165C15.7915 8.42101 15.6419 8.95378 15.3405 9.42146C15.042 9.88914 14.6277 10.233 14.1009 10.4555V10.5194C14.8589 10.6804 15.4668 11.0042 15.9228 11.497C16.3795 11.9904 16.6076 12.6546 16.6076 13.4887C16.6076 14.0992 16.4923 14.6377 16.2611 15.0995C16.0299 15.5613 15.7204 15.9419 15.3288 16.2463C14.867 16.6092 14.3601 16.8653 13.8046 17.0204C13.2527 17.1749 12.5515 17.2521 11.6981 17.2521H6.78045V4.96579L6.78043 4.96576ZM9.85011 7.21801V9.81814H10.2385C10.7653 9.81814 11.1375 9.81273 11.3489 9.80164C11.5602 9.79055 11.7801 9.73395 12.0054 9.62976C12.2501 9.51445 12.4224 9.35436 12.5149 9.15126C12.6079 8.9458 12.6558 8.70855 12.6558 8.44108C12.6558 8.24149 12.605 8.03826 12.5032 7.8299C12.4019 7.62151 12.2446 7.46921 12.0274 7.37615C11.8249 7.28601 11.5854 7.23849 11.3062 7.22971C11.0276 7.22091 10.6136 7.21803 10.0646 7.21803H9.85009L9.85011 7.21801ZM9.85011 11.9226V14.9984H10.0165C10.8196 14.9984 11.3742 14.9924 11.6809 14.9813C11.9876 14.9702 12.3036 14.8973 12.6214 14.7592C12.9036 14.638 13.1061 14.4605 13.2361 14.2264C13.3654 13.9928 13.4299 13.7279 13.4299 13.4323C13.4299 13.0518 13.3547 12.7562 13.1996 12.542C13.0451 12.3254 12.8139 12.1646 12.5066 12.0546C12.3205 11.9814 12.0612 11.9418 11.7346 11.9336C11.4079 11.9254 10.969 11.9226 10.4194 11.9226H9.85013H9.85011Z" fill="#1074EB"/>
</svg>
