<svg width="27" height="29" viewBox="0 0 27 29" fill="none" xmlns="http://www.w3.org/2000/svg">
<path d="M6.33339 24.6668C7.43739 24.6668 8.33339 25.5628 8.33339 26.6668C8.33339 27.7708 7.43739 28.6668 6.33339 28.6668C5.22939 28.6668 4.33339 27.7708 4.33339 26.6668C4.33339 25.5628 5.22939 24.6668 6.33339 24.6668ZM23.6667 24.6668C24.7707 24.6668 25.6667 25.5628 25.6667 26.6668C25.6667 27.7708 24.7707 28.6668 23.6667 28.6668C22.5627 28.6668 21.6667 27.7708 21.6667 26.6668C21.6667 25.5628 22.5627 24.6668 23.6667 24.6668ZM1.89606 0.342773L6.99872 5.44677V20.6668H25.6667V23.3334H5.66672C4.93072 23.3334 4.33339 22.7361 4.33339 22.0001V6.55077L0.00805664 2.22944L1.89472 0.342773H1.89606ZM20.3334 2.00011C21.0694 2.00011 21.6667 2.59744 21.6667 3.33344V6.00011H25.6574C26.4001 6.00011 27.0001 6.60811 27.0001 7.32677V18.0068C27.0001 18.7401 26.4001 19.3334 25.6574 19.3334H9.67606C8.93339 19.3334 8.33339 18.7254 8.33339 18.0068V7.32677C8.33339 6.59344 8.93339 6.00011 9.67606 6.00011H13.6654L13.6667 3.33344C13.6667 2.59744 14.2641 2.00011 15.0001 2.00011H20.3334ZM12.3334 8.66677H11.0001V16.6668H12.3334V8.66677ZM20.3334 8.66677H15.0001V16.6668H20.3334V8.66677ZM24.3334 8.66677H23.0001V16.6668H24.3334V8.66677ZM19.0001 4.66677H16.3334V6.00011H19.0001V4.66677Z" fill="#FF9900"/>
</svg>
