<svg width="31" height="26" viewBox="0 0 31 26" fill="none" xmlns="http://www.w3.org/2000/svg">
<path d="M5.66658 10.0001C6.02021 10.0001 6.35935 10.1406 6.60939 10.3906C6.85944 10.6407 6.99992 10.9798 6.99992 11.3334C9.09477 11.3303 11.1292 12.0351 12.7733 13.3334H15.6666C17.4439 13.3334 19.0399 14.1067 20.1386 15.3334H24.3333C25.5936 15.3331 26.8282 15.69 27.894 16.3628C28.9597 17.0356 29.8129 17.9968 30.3546 19.1347C27.2013 23.2961 22.0959 26.0001 16.3333 26.0001C12.6133 26.0001 9.46659 25.1961 6.91992 23.7894C6.82664 24.0468 6.65624 24.2692 6.43194 24.4262C6.20764 24.5832 5.94037 24.6672 5.66658 24.6667H1.66659C1.31296 24.6667 0.973825 24.5263 0.723776 24.2762C0.473728 24.0262 0.333252 23.687 0.333252 23.3334V11.3334C0.333252 10.9798 0.473728 10.6407 0.723776 10.3906C0.973825 10.1406 1.31296 10.0001 1.66659 10.0001H5.66658ZM7.00125 14.0001L6.99992 20.6961L7.05992 20.7388C9.45325 22.4188 12.5706 23.3334 16.3333 23.3334C20.3386 23.3334 24.0652 21.7921 26.7799 19.1601L26.9573 18.9827L26.7973 18.8494C26.1677 18.3563 25.4045 18.0637 24.6066 18.0094L24.3333 18.0001H21.5186C21.6146 18.4294 21.6666 18.8747 21.6666 19.3334V20.6667H9.66658V18.0001L18.7199 17.9987L18.6746 17.8947C18.4191 17.3608 18.026 16.9045 17.5358 16.5727C17.0456 16.2409 16.4759 16.0456 15.8853 16.0067L15.6666 16.0001H11.7599C11.1403 15.3664 10.4003 14.863 9.58328 14.5195C8.76628 14.1761 7.88884 13.9994 7.00258 14.0001H7.00125ZM4.33325 12.6667H2.99992V22.0001H4.33325V12.6667ZM22.9999 4.66675C24.0608 4.66675 25.0782 5.08818 25.8283 5.83832C26.5785 6.58847 26.9999 7.60588 26.9999 8.66675C26.9999 9.72761 26.5785 10.745 25.8283 11.4952C25.0782 12.2453 24.0608 12.6667 22.9999 12.6667C21.9391 12.6667 20.9216 12.2453 20.1715 11.4952C19.4213 10.745 18.9999 9.72761 18.9999 8.66675C18.9999 7.60588 19.4213 6.58847 20.1715 5.83832C20.9216 5.08818 21.9391 4.66675 22.9999 4.66675ZM22.9999 7.33342C22.6463 7.33342 22.3072 7.47389 22.0571 7.72394C21.8071 7.97399 21.6666 8.31313 21.6666 8.66675C21.6666 9.02037 21.8071 9.35951 22.0571 9.60956C22.3072 9.85961 22.6463 10.0001 22.9999 10.0001C23.3535 10.0001 23.6927 9.85961 23.9427 9.60956C24.1928 9.35951 24.3333 9.02037 24.3333 8.66675C24.3333 8.31313 24.1928 7.97399 23.9427 7.72394C23.6927 7.47389 23.3535 7.33342 22.9999 7.33342ZM13.6666 0.666748C14.7275 0.666748 15.7449 1.08818 16.495 1.83832C17.2452 2.58847 17.6666 3.60588 17.6666 4.66675C17.6666 5.72761 17.2452 6.74503 16.495 7.49518C15.7449 8.24532 14.7275 8.66675 13.6666 8.66675C12.6057 8.66675 11.5883 8.24532 10.8382 7.49518C10.088 6.74503 9.66658 5.72761 9.66658 4.66675C9.66658 3.60588 10.088 2.58847 10.8382 1.83832C11.5883 1.08818 12.6057 0.666748 13.6666 0.666748ZM13.6666 3.33341C13.313 3.33341 12.9738 3.47389 12.7238 3.72394C12.4737 3.97399 12.3333 4.31313 12.3333 4.66675C12.3333 5.02037 12.4737 5.35951 12.7238 5.60956C12.9738 5.85961 13.313 6.00008 13.6666 6.00008C14.0202 6.00008 14.3593 5.85961 14.6094 5.60956C14.8594 5.35951 14.9999 5.02037 14.9999 4.66675C14.9999 4.31313 14.8594 3.97399 14.6094 3.72394C14.3593 3.47389 14.0202 3.33341 13.6666 3.33341Z" fill="#FF9900"/>
</svg>
