<svg width="17" height="18" viewBox="0 0 17 18" fill="none" xmlns="http://www.w3.org/2000/svg">
<path d="M2.16659 11.6667V2.16671H0.583252V0.583374H2.95825C3.16821 0.583374 3.36958 0.666781 3.51804 0.815248C3.66651 0.963714 3.74992 1.16508 3.74992 1.37504V10.875H13.5967L15.18 4.54171H5.33325V2.95837H16.1949C16.3153 2.95838 16.434 2.98581 16.5422 3.0386C16.6503 3.09138 16.745 3.16813 16.819 3.263C16.893 3.35787 16.9445 3.46836 16.9694 3.58609C16.9943 3.70382 16.9921 3.82568 16.9628 3.94242L14.9837 11.8591C14.9408 12.0303 14.8419 12.1822 14.7028 12.2908C14.5637 12.3994 14.3922 12.4584 14.2158 12.4584H2.95825C2.74829 12.4584 2.54693 12.375 2.39846 12.2265C2.24999 12.078 2.16659 11.8767 2.16659 11.6667ZM3.74992 17.2084C3.32999 17.2084 2.92727 17.0416 2.63033 16.7446C2.3334 16.4477 2.16659 16.045 2.16659 15.625C2.16659 15.2051 2.3334 14.8024 2.63033 14.5055C2.92727 14.2085 3.32999 14.0417 3.74992 14.0417C4.16984 14.0417 4.57257 14.2085 4.8695 14.5055C5.16644 14.8024 5.33325 15.2051 5.33325 15.625C5.33325 16.045 5.16644 16.4477 4.8695 16.7446C4.57257 17.0416 4.16984 17.2084 3.74992 17.2084ZM13.2499 17.2084C12.83 17.2084 12.4273 17.0416 12.1303 16.7446C11.8334 16.4477 11.6666 16.045 11.6666 15.625C11.6666 15.2051 11.8334 14.8024 12.1303 14.5055C12.4273 14.2085 12.83 14.0417 13.2499 14.0417C13.6698 14.0417 14.0726 14.2085 14.3695 14.5055C14.6664 14.8024 14.8333 15.2051 14.8333 15.625C14.8333 16.045 14.6664 16.4477 14.3695 16.7446C14.0726 17.0416 13.6698 17.2084 13.2499 17.2084Z" fill="white"/>
</svg>
