<svg width="21" height="20" viewBox="0 0 21 20" fill="none" xmlns="http://www.w3.org/2000/svg">
<path d="M10.501 1.71769C12.9478 -0.479188 16.7291 -0.406271 19.0864 1.95519C21.4426 4.31769 21.5239 8.08019 19.3322 10.5344L10.4989 19.3802L1.66763 10.5344C-0.524033 8.08019 -0.441742 4.31144 1.91347 1.95519C4.27284 -0.403146 8.0468 -0.482313 10.501 1.71769ZM17.6114 3.42706C16.0489 1.86248 13.5281 1.79894 11.8926 3.26769L10.502 4.5156L9.11034 3.26873C7.46972 1.7979 4.95409 1.86248 3.38743 3.42915C1.83534 4.98123 1.75722 7.4656 3.18743 9.10727L10.4999 16.4312L17.8124 9.10831C19.2437 7.4656 19.1656 4.98435 17.6114 3.42706Z" fill="#1074EB"/>
</svg>
