<svg width="13" height="18" viewBox="0 0 13 18" fill="none" xmlns="http://www.w3.org/2000/svg">
<path d="M0.166748 17.4167C0.166748 15.737 0.834008 14.1261 2.02174 12.9384C3.20947 11.7507 4.82038 11.0834 6.50008 11.0834C8.17979 11.0834 9.79069 11.7507 10.9784 12.9384C12.1662 14.1261 12.8334 15.737 12.8334 17.4167H0.166748ZM7.29175 12.7325V15.8334H10.9801C10.6971 15.0349 10.206 14.3265 9.55762 13.7814C8.90919 13.2362 8.12696 12.8741 7.29175 12.7325ZM5.70841 15.8334V12.7325C4.8732 12.8741 4.09097 13.2362 3.44255 13.7814C2.79412 14.3265 2.30304 15.0349 2.02004 15.8334H5.70841ZM6.50008 10.2917C3.87571 10.2917 1.75008 8.16612 1.75008 5.54175C1.75008 2.91737 3.87571 0.791748 6.50008 0.791748C9.12446 0.791748 11.2501 2.91737 11.2501 5.54175C11.2501 8.16612 9.12446 10.2917 6.50008 10.2917ZM6.50008 8.70842C8.24966 8.70842 9.66675 7.29133 9.66675 5.54175C9.66675 3.79216 8.24966 2.37508 6.50008 2.37508C4.7505 2.37508 3.33341 3.79216 3.33341 5.54175C3.33341 7.29133 4.7505 8.70842 6.50008 8.70842Z" fill="white"/>
</svg>
