<svg width="21" height="20" viewBox="0 0 21 20" fill="none" xmlns="http://www.w3.org/2000/svg">
<path d="M10.501 1.7177C12.9478 -0.479172 16.7291 -0.406256 19.0864 1.9552C21.4426 4.3177 21.5239 8.0802 19.3322 10.5344L10.4989 19.3802L1.66763 10.5344C-0.524033 8.0802 -0.441742 4.31145 1.91347 1.9552C4.27284 -0.403131 8.0468 -0.482297 10.501 1.7177ZM17.6114 3.42708C16.0489 1.86249 13.5281 1.79895 11.8926 3.2677L10.502 4.51562L9.11034 3.26874C7.46972 1.79791 4.95409 1.86249 3.38743 3.42916C1.83534 4.98124 1.75722 7.46562 3.18743 9.10729L10.4999 16.4312L17.8124 9.10833C19.2437 7.46562 19.1656 4.98437 17.6114 3.42708Z" fill="#383838"/>
</svg>
