<svg width="22" height="22" viewBox="0 0 22 22" fill="none" xmlns="http://www.w3.org/2000/svg">
<path d="M2.16659 14.6667V2.16666H0.083252V0.0833282H3.20825C3.48452 0.0833282 3.74947 0.193075 3.94482 0.388425C4.14017 0.583776 4.24992 0.848728 4.24992 1.12499V13.625H17.2062L19.2895 5.29166H6.33325V3.20833H20.6249C20.7833 3.20833 20.9395 3.24443 21.0818 3.31389C21.2241 3.38334 21.3487 3.48432 21.4461 3.60915C21.5435 3.73398 21.6112 3.87937 21.644 4.03428C21.6768 4.18918 21.6738 4.34953 21.6353 4.50312L19.0312 14.9198C18.9747 15.145 18.8447 15.345 18.6616 15.4879C18.4785 15.6307 18.253 15.7083 18.0208 15.7083H3.20825C2.93198 15.7083 2.66703 15.5986 2.47168 15.4032C2.27633 15.2079 2.16659 14.9429 2.16659 14.6667ZM4.24992 21.9583C3.69738 21.9583 3.16748 21.7388 2.77678 21.3481C2.38608 20.9574 2.16659 20.4275 2.16659 19.875C2.16659 19.3225 2.38608 18.7926 2.77678 18.4019C3.16748 18.0112 3.69738 17.7917 4.24992 17.7917C4.80245 17.7917 5.33236 18.0112 5.72306 18.4019C6.11376 18.7926 6.33325 19.3225 6.33325 19.875C6.33325 20.4275 6.11376 20.9574 5.72306 21.3481C5.33236 21.7388 4.80245 21.9583 4.24992 21.9583ZM16.7499 21.9583C16.1974 21.9583 15.6675 21.7388 15.2768 21.3481C14.8861 20.9574 14.6666 20.4275 14.6666 19.875C14.6666 19.3225 14.8861 18.7926 15.2768 18.4019C15.6675 18.0112 16.1974 17.7917 16.7499 17.7917C17.3025 17.7917 17.8324 18.0112 18.2231 18.4019C18.6138 18.7926 18.8333 19.3225 18.8333 19.875C18.8333 20.4275 18.6138 20.9574 18.2231 21.3481C17.8324 21.7388 17.3025 21.9583 16.7499 21.9583Z" fill="#383838"/>
</svg>
