<svg width="18" height="14" viewBox="0 0 18 14" fill="none" xmlns="http://www.w3.org/2000/svg">
<path d="M14.8337 0.333374H3.16699C2.50395 0.333374 1.86807 0.596766 1.39923 1.06561C0.930384 1.53445 0.666992 2.17033 0.666992 2.83337V11.1667C0.666992 11.8297 0.930384 12.4656 1.39923 12.9345C1.86807 13.4033 2.50395 13.6667 3.16699 13.6667H14.8337C15.4967 13.6667 16.1326 13.4033 16.6014 12.9345C17.0703 12.4656 17.3337 11.8297 17.3337 11.1667V2.83337C17.3337 2.17033 17.0703 1.53445 16.6014 1.06561C16.1326 0.596766 15.4967 0.333374 14.8337 0.333374ZM14.2753 2.00004L9.00033 5.95837L3.72533 2.00004H14.2753ZM14.8337 12H3.16699C2.94598 12 2.73402 11.9122 2.57774 11.756C2.42146 11.5997 2.33366 11.3877 2.33366 11.1667V3.04171L8.50033 7.66671C8.64457 7.77489 8.82002 7.83337 9.00033 7.83337C9.18063 7.83337 9.35608 7.77489 9.50033 7.66671L15.667 3.04171V11.1667C15.667 11.3877 15.5792 11.5997 15.4229 11.756C15.2666 11.9122 15.0547 12 14.8337 12Z" fill="#FF9900"/>
</svg>
