<svg width="22" height="22" viewBox="0 0 22 22" fill="none" xmlns="http://www.w3.org/2000/svg">
<path d="M18.2667 21.8031H3.85833C1.95588 21.8031 0.408203 20.2191 0.408203 18.2719V3.53128C0.408203 1.584 1.95588 0 3.85833 0H18.2667C20.1686 0 21.7163 1.584 21.7163 3.53128V18.2724C21.7163 20.2197 20.1686 21.8031 18.2667 21.8031ZM7.5582 4.51282H14.7082C16.227 4.51282 17.4582 5.77561 17.4582 7.33333V14.6667C17.4582 16.2244 16.227 17.4872 14.7082 17.4872H7.5582C6.03942 17.4872 4.8082 16.2244 4.8082 14.6667V7.33333C4.8082 5.77561 6.03942 4.51282 7.5582 4.51282ZM7.5582 2.82051C5.12815 2.82051 3.1582 4.84097 3.1582 7.33333V14.6667C3.1582 17.159 5.12815 19.1795 7.5582 19.1795H14.7082C17.1383 19.1795 19.1082 17.159 19.1082 14.6667V7.33333C19.1082 4.84097 17.1383 2.82051 14.7082 2.82051H7.5582ZM11.1332 14.9487C13.2595 14.9487 14.9832 13.1808 14.9832 11C14.9832 8.81918 13.2595 7.05128 11.1332 7.05128C9.00691 7.05128 7.2832 8.81918 7.2832 11C7.2832 13.1808 9.00691 14.9487 11.1332 14.9487ZM11.1332 13.2564C9.91818 13.2564 8.9332 12.2462 8.9332 11C8.9332 9.75382 9.91818 8.74359 11.1332 8.74359C12.3482 8.74359 13.3332 9.75382 13.3332 11C13.3332 12.2462 12.3482 13.2564 11.1332 13.2564ZM15.2582 7.89744C15.8657 7.89744 16.3582 7.39232 16.3582 6.76923C16.3582 6.14614 15.8657 5.64103 15.2582 5.64103C14.6507 5.64103 14.1582 6.14614 14.1582 6.76923C14.1582 7.39232 14.6507 7.89744 15.2582 7.89744Z" fill="#1074EB"/>
</svg>
