<svg width="22" height="22" viewBox="0 0 22 22" fill="none" xmlns="http://www.w3.org/2000/svg">
<g clip-path="url(#clip0_388_723)">
<path d="M9.79688 12.5469L13.0625 10.8281L9.79688 9.10938V12.5469Z" fill="#E92626"/>
<path d="M17.875 0H4.125C3.03196 0.00317417 1.98459 0.43879 1.21169 1.21169C0.43879 1.98459 0.00317417 3.03196 0 4.125L0 17.875C0.00317417 18.968 0.43879 20.0154 1.21169 20.7883C1.98459 21.5612 3.03196 21.9968 4.125 22H17.875C18.968 21.9968 20.0154 21.5612 20.7883 20.7883C21.5612 20.0154 21.9968 18.968 22 17.875V4.125C21.9968 3.03196 21.5612 1.98459 20.7883 1.21169C20.0154 0.43879 18.968 0.00317417 17.875 0V0ZM16.9503 12.7325C16.8661 13.8927 16.6547 15.0906 15.1714 15.1783C12.3922 15.3367 9.60613 15.3367 6.82688 15.1783C5.34359 15.0923 5.13219 13.8927 5.04797 12.7325C4.96157 11.5791 4.96157 10.4209 5.04797 9.2675C5.13219 8.10734 5.34359 6.90937 6.82688 6.82172C9.60613 6.66328 12.3922 6.66328 15.1714 6.82172C16.6547 6.90766 16.8661 8.10734 16.9503 9.2675C17.0367 10.4209 17.0367 11.5791 16.9503 12.7325Z" fill="#E92626"/>
</g>
<defs>
<clipPath id="clip0_388_723">
<rect width="22" height="22" fill="white"/>
</clipPath>
</defs>
</svg>
