<svg width="20" height="22" viewBox="0 0 20 22" fill="none" xmlns="http://www.w3.org/2000/svg">
<path d="M4.17 17C4.3766 16.4145 4.75974 15.9074 5.2666 15.5488C5.77346 15.1901 6.37909 14.9976 7 14.9976C7.62091 14.9976 8.22654 15.1901 8.7334 15.5488C9.24026 15.9074 9.6234 16.4145 9.83 17H20V19H9.83C9.6234 19.5855 9.24026 20.0926 8.7334 20.4512C8.22654 20.8099 7.62091 21.0025 7 21.0025C6.37909 21.0025 5.77346 20.8099 5.2666 20.4512C4.75974 20.0926 4.3766 19.5855 4.17 19H0V17H4.17ZM10.17 10C10.3766 9.41447 10.7597 8.90743 11.2666 8.54879C11.7735 8.19015 12.3791 7.99755 13 7.99755C13.6209 7.99755 14.2265 8.19015 14.7334 8.54879C15.2403 8.90743 15.6234 9.41447 15.83 10H20V12H15.83C15.6234 12.5855 15.2403 13.0926 14.7334 13.4512C14.2265 13.8099 13.6209 14.0025 13 14.0025C12.3791 14.0025 11.7735 13.8099 11.2666 13.4512C10.7597 13.0926 10.3766 12.5855 10.17 12H0V10H10.17ZM4.17 3C4.3766 2.41447 4.75974 1.90744 5.2666 1.54879C5.77346 1.19015 6.37909 0.997551 7 0.997551C7.62091 0.997551 8.22654 1.19015 8.7334 1.54879C9.24026 1.90744 9.6234 2.41447 9.83 3H20V5H9.83C9.6234 5.58553 9.24026 6.09257 8.7334 6.45121C8.22654 6.80986 7.62091 7.00245 7 7.00245C6.37909 7.00245 5.77346 6.80986 5.2666 6.45121C4.75974 6.09257 4.3766 5.58553 4.17 5H0V3H4.17ZM7 5C7.26522 5 7.51957 4.89464 7.70711 4.70711C7.89464 4.51957 8 4.26522 8 4C8 3.73478 7.89464 3.48043 7.70711 3.29289C7.51957 3.10536 7.26522 3 7 3C6.73478 3 6.48043 3.10536 6.29289 3.29289C6.10536 3.48043 6 3.73478 6 4C6 4.26522 6.10536 4.51957 6.29289 4.70711C6.48043 4.89464 6.73478 5 7 5ZM13 12C13.2652 12 13.5196 11.8946 13.7071 11.7071C13.8946 11.5196 14 11.2652 14 11C14 10.7348 13.8946 10.4804 13.7071 10.2929C13.5196 10.1054 13.2652 10 13 10C12.7348 10 12.4804 10.1054 12.2929 10.2929C12.1054 10.4804 12 10.7348 12 11C12 11.2652 12.1054 11.5196 12.2929 11.7071C12.4804 11.8946 12.7348 12 13 12ZM7 19C7.26522 19 7.51957 18.8946 7.70711 18.7071C7.89464 18.5196 8 18.2652 8 18C8 17.7348 7.89464 17.4804 7.70711 17.2929C7.51957 17.1054 7.26522 17 7 17C6.73478 17 6.48043 17.1054 6.29289 17.2929C6.10536 17.4804 6 17.7348 6 18C6 18.2652 6.10536 18.5196 6.29289 18.7071C6.48043 18.8946 6.73478 19 7 19Z" fill="white"/>
</svg>
